<svg width="198" height="395" viewBox="0 0 198 395" fill="none" xmlns="http://www.w3.org/2000/svg">
<path d="M134 265.145L183.915 268.067L198 98.3105V395H0V304.991L7.23145 307.504L94.8379 73.751L58 264.463L107.309 272.751L152.992 36.249L134 265.145ZM39.0117 327.516C35.9612 327.516 33.5521 328.366 31.7842 330.064C30.0163 331.763 29.1318 334.155 29.1318 337.24C29.1319 339.355 29.4615 341.14 30.1201 342.596C30.7788 344.017 31.8018 345.335 33.1885 346.548L40.2598 352.788C41.5771 353.967 42.6695 355.146 43.5361 356.324C44.4027 357.468 44.8359 358.994 44.8359 360.9C44.8359 362.495 44.4369 363.725 43.6396 364.592C42.877 365.424 41.7333 365.84 40.208 365.84C38.7173 365.84 37.5556 365.407 36.7236 364.54C35.8918 363.639 35.2856 362.495 34.9043 361.108C34.5576 359.722 34.3315 358.283 34.2275 356.792L29.0283 358.196C29.167 360.623 29.6524 362.755 30.4844 364.592C31.3164 366.429 32.5294 367.868 34.124 368.908C35.7533 369.948 37.7814 370.468 40.208 370.468C42.184 370.468 43.9175 370.07 45.4082 369.272C46.9335 368.475 48.1294 367.331 48.9961 365.84C49.8627 364.315 50.2959 362.512 50.2959 360.432C50.2958 357.797 49.6889 355.527 48.4756 353.62C47.2623 351.679 45.8583 350.015 44.2637 348.628L37.1396 342.388C36.1692 341.521 35.4584 340.672 35.0078 339.84C34.5919 339.008 34.3838 337.951 34.3838 336.668C34.3838 335.143 34.7828 333.999 35.5801 333.236C36.412 332.439 37.5559 332.04 39.0117 332.04C40.4676 332.04 41.5772 332.404 42.3398 333.132C43.1372 333.825 43.6919 334.762 44.0039 335.94C44.3158 337.084 44.5239 338.35 44.6279 339.736L49.6201 338.384C49.4468 336.547 49.1001 334.952 48.5801 333.6C48.0948 332.213 47.4184 331.069 46.5518 330.168C45.7198 329.267 44.6625 328.608 43.3799 328.192C42.1319 327.742 40.6757 327.516 39.0117 327.516ZM75.9707 355.804C75.9707 358.75 76.2652 361.333 76.8545 363.552C77.4438 365.736 78.5533 367.435 80.1826 368.648C81.8119 369.862 84.1518 370.468 87.2021 370.468C90.2528 370.468 92.5762 369.862 94.1709 368.648C95.8002 367.435 96.9097 365.736 97.499 363.552C98.0883 361.333 98.3828 358.75 98.3828 355.804V327.88H92.8184V356.064C92.8183 357.867 92.6977 359.513 92.4551 361.004C92.2124 362.495 91.6919 363.673 90.8945 364.54C90.0972 365.407 88.8661 365.84 87.2021 365.84C85.5731 365.84 84.3427 365.407 83.5107 364.54C82.7134 363.673 82.1929 362.495 81.9502 361.004C81.7076 359.513 81.5869 357.867 81.5869 356.064V327.88H75.9707V355.804ZM155.653 327.516C152.811 327.516 150.539 328.053 148.841 329.128C147.177 330.168 145.964 331.694 145.201 333.704C144.473 335.68 144.109 338.055 144.109 340.828V356.792C144.109 359.565 144.473 361.992 145.201 364.072C145.929 366.117 147.142 367.694 148.841 368.804C150.539 369.913 152.811 370.468 155.653 370.468C158.496 370.468 160.749 369.913 162.413 368.804C164.077 367.66 165.273 366.065 166.001 364.02C166.764 361.974 167.146 359.582 167.146 356.844V340.828C167.146 338.055 166.764 335.68 166.001 333.704C165.273 331.728 164.077 330.203 162.413 329.128C160.749 328.053 158.496 327.516 155.653 327.516ZM52.3584 332.248H59.4824V370H65.3584V332.248H72.2744V327.88H52.3584V332.248ZM104.569 370H114.189C117.136 370 119.476 369.48 121.209 368.44C122.977 367.366 124.242 365.805 125.005 363.76C125.802 361.714 126.201 359.201 126.201 356.22V340.724C126.201 337.881 125.802 335.506 125.005 333.6C124.242 331.693 122.942 330.272 121.104 329.336C119.302 328.365 116.84 327.88 113.721 327.88H104.569V370ZM132.303 370H138.075V327.88H132.303V370ZM155.653 332.092C157.213 332.092 158.392 332.404 159.189 333.028C159.987 333.618 160.524 334.484 160.802 335.628C161.079 336.737 161.217 338.072 161.217 339.632V358.092C161.217 359.652 161.079 361.022 160.802 362.2C160.524 363.344 159.987 364.246 159.189 364.904C158.392 365.528 157.213 365.84 155.653 365.84C154.093 365.84 152.897 365.528 152.065 364.904C151.268 364.246 150.73 363.344 150.453 362.2C150.176 361.022 150.037 359.652 150.037 358.092V339.632C150.037 338.072 150.176 336.737 150.453 335.628C150.73 334.484 151.268 333.618 152.065 333.028C152.897 332.404 154.093 332.092 155.653 332.092ZM113.617 332.248C115.628 332.248 117.101 332.56 118.037 333.184C118.973 333.808 119.58 334.796 119.857 336.148C120.135 337.5 120.273 339.268 120.273 341.452V355.128C120.273 357.381 120.169 359.306 119.961 360.9C119.788 362.495 119.25 363.708 118.349 364.54C117.447 365.372 115.922 365.788 113.773 365.788H110.445V332.248H113.617ZM38.0117 283.516C34.9612 283.516 32.5521 284.366 30.7842 286.064C29.0163 287.763 28.1318 290.155 28.1318 293.24C28.1319 295.355 28.4615 297.14 29.1201 298.596C29.7788 300.017 30.8018 301.335 32.1885 302.548L39.2598 308.788C40.5771 309.967 41.6695 311.146 42.5361 312.324C43.4027 313.468 43.8359 314.994 43.8359 316.9C43.8359 318.495 43.4369 319.725 42.6396 320.592C41.877 321.424 40.7333 321.84 39.208 321.84C37.7173 321.84 36.5556 321.407 35.7236 320.54C34.8918 319.639 34.2856 318.495 33.9043 317.108C33.5576 315.722 33.3315 314.283 33.2275 312.792L28.0283 314.196C28.167 316.623 28.6524 318.755 29.4844 320.592C30.3164 322.429 31.5294 323.868 33.124 324.908C34.7533 325.948 36.7814 326.468 39.208 326.468C41.184 326.468 42.9175 326.07 44.4082 325.272C45.9335 324.475 47.1294 323.331 47.9961 321.84C48.8627 320.315 49.2959 318.512 49.2959 316.432C49.2958 313.797 48.6889 311.527 47.4756 309.62C46.2623 307.679 44.8583 306.015 43.2637 304.628L36.1396 298.388C35.1692 297.521 34.4584 296.672 34.0078 295.84C33.5919 295.008 33.3838 293.951 33.3838 292.668C33.3838 291.143 33.7828 289.999 34.5801 289.236C35.412 288.439 36.5559 288.04 38.0117 288.04C39.4676 288.04 40.5772 288.404 41.3398 289.132C42.1372 289.825 42.6919 290.762 43.0039 291.94C43.3158 293.084 43.5239 294.35 43.6279 295.736L48.6201 294.384C48.4468 292.547 48.1001 290.952 47.5801 289.6C47.0948 288.213 46.4184 287.069 45.5518 286.168C44.7198 285.267 43.6625 284.608 42.3799 284.192C41.1319 283.742 39.6757 283.516 38.0117 283.516ZM157.805 283.516C154.754 283.516 152.345 284.366 150.577 286.064C148.809 287.763 147.925 290.155 147.925 293.24C147.925 295.355 148.255 297.14 148.913 298.596C149.572 300.017 150.595 301.335 151.981 302.548L159.053 308.788C160.37 309.967 161.462 311.146 162.329 312.324C163.196 313.468 163.629 314.994 163.629 316.9C163.629 318.495 163.23 319.725 162.433 320.592C161.67 321.424 160.526 321.84 159.001 321.84C157.51 321.84 156.349 321.407 155.517 320.54C154.685 319.639 154.079 318.495 153.697 317.108C153.351 315.722 153.125 314.283 153.021 312.792L147.821 314.196C147.96 316.623 148.445 318.755 149.277 320.592C150.109 322.429 151.322 323.868 152.917 324.908C154.546 325.948 156.574 326.468 159.001 326.468C160.977 326.468 162.711 326.07 164.201 325.272C165.727 324.475 166.922 323.331 167.789 321.84C168.656 320.315 169.089 318.512 169.089 316.432C169.089 313.797 168.482 311.527 167.269 309.62C166.055 307.679 164.651 306.015 163.057 304.628L155.933 298.388C154.962 297.521 154.251 296.672 153.801 295.84C153.385 295.008 153.177 293.951 153.177 292.668C153.177 291.143 153.576 289.999 154.373 289.236C155.205 288.439 156.349 288.04 157.805 288.04C159.261 288.04 160.37 288.404 161.133 289.132C161.93 289.825 162.485 290.762 162.797 291.94C163.109 293.084 163.317 294.35 163.421 295.736L168.413 294.384C168.24 292.547 167.893 290.952 167.373 289.6C166.888 288.213 166.211 287.069 165.345 286.168C164.513 285.267 163.455 284.608 162.173 284.192C160.925 283.742 159.469 283.516 157.805 283.516ZM53.8545 326H70.4941V321.788H59.7305V283.88H53.8545V326ZM72.2344 326H77.7461L79.7744 315.392H88.3545L90.2783 326H95.8418L86.8457 283.88H81.1777L72.2344 326ZM100.116 326H105.107V297.244L117.224 326H120.968V283.88H116.08V311.856L104.12 283.88H100.116V326ZM125.093 288.248H132.217V326H138.093V288.248H145.009V283.88H125.093V288.248ZM87.5742 311.18H80.5537L84.0381 292.2L87.5742 311.18ZM198 18.5371L154.673 16L153.749 27.124L105.415 19L94.9092 73.3848L47.7363 57L0 184.37V0H198V18.5371Z" fill="black"/>
</svg>
